<svg xmlns="http://www.w3.org/2000/svg" xmlns:xlink="http://www.w3.org/1999/xlink" width="500" zoomAndPan="magnify" viewBox="0 0 375 374.999991" height="500" preserveAspectRatio="xMidYMid meet" version="1.2"><defs><clipPath id="6725b31cb1"><path d="M 105.871094 43.539062 L 268.605469 43.539062 L 268.605469 230 L 105.871094 230 Z M 105.871094 43.539062 "/></clipPath></defs><g id="84d3a02ece"><g style="fill:#463f57;fill-opacity:1;"><g transform="translate(13.474818, 317.256727)"><path style="stroke:none" d="M 28.53125 0 L 13.546875 0 C 12.816406 0 12.210938 -0.132812 11.734375 -0.40625 C 11.253906 -0.675781 10.878906 -1.175781 10.609375 -1.90625 L 4.953125 -16.03125 C 4.609375 -16.875 4.320312 -17.609375 4.09375 -18.234375 C 3.863281 -18.867188 3.671875 -19.472656 3.515625 -20.046875 C 3.359375 -20.628906 3.25 -21.238281 3.1875 -21.875 C 3.132812 -22.507812 3.109375 -23.285156 3.109375 -24.203125 L 3.109375 -39.421875 C 3.109375 -40.148438 3.269531 -40.675781 3.59375 -41 C 3.925781 -41.332031 4.457031 -41.5 5.1875 -41.5 L 14.359375 -41.5 C 15.085938 -41.5 15.640625 -41.332031 16.015625 -41 C 16.398438 -40.675781 16.59375 -40.148438 16.59375 -39.421875 L 16.59375 -23.515625 C 16.59375 -23.128906 16.628906 -22.742188 16.703125 -22.359375 C 16.785156 -21.972656 16.90625 -21.570312 17.0625 -21.15625 L 19.765625 -13.078125 C 19.878906 -12.703125 20.015625 -12.445312 20.171875 -12.3125 C 20.328125 -12.175781 20.554688 -12.109375 20.859375 -12.109375 L 21.5 -12.109375 C 21.8125 -12.109375 22.039062 -12.175781 22.1875 -12.3125 C 22.34375 -12.445312 22.476562 -12.703125 22.59375 -13.078125 L 25.296875 -21.21875 C 25.453125 -21.632812 25.566406 -22.035156 25.640625 -22.421875 C 25.722656 -22.804688 25.765625 -23.191406 25.765625 -23.578125 L 25.765625 -39.421875 C 25.765625 -40.148438 25.925781 -40.675781 26.25 -41 C 26.582031 -41.332031 27.113281 -41.5 27.84375 -41.5 L 36.890625 -41.5 C 37.617188 -41.5 38.144531 -41.332031 38.46875 -41 C 38.800781 -40.675781 38.96875 -40.148438 38.96875 -39.421875 L 38.96875 -24.203125 C 38.96875 -23.285156 38.9375 -22.507812 38.875 -21.875 C 38.820312 -21.238281 38.71875 -20.628906 38.5625 -20.046875 C 38.40625 -19.472656 38.210938 -18.867188 37.984375 -18.234375 C 37.753906 -17.609375 37.46875 -16.875 37.125 -16.03125 L 31.46875 -1.90625 C 31.195312 -1.175781 30.820312 -0.675781 30.34375 -0.40625 C 29.863281 -0.132812 29.257812 0 28.53125 0 Z M 28.53125 0 "/></g></g><g style="fill:#463f57;fill-opacity:1;"><g transform="translate(59.861257, 317.256727)"><path style="stroke:none" d="M 5.125 0 C 4.394531 0 3.867188 -0.160156 3.546875 -0.484375 C 3.222656 -0.816406 3.0625 -1.347656 3.0625 -2.078125 L 3.0625 -8.9375 C 3.0625 -9.664062 3.222656 -10.191406 3.546875 -10.515625 C 3.867188 -10.847656 4.394531 -11.015625 5.125 -11.015625 L 10.84375 -11.015625 L 10.84375 -30.375 L 5.125 -30.375 C 4.394531 -30.375 3.867188 -30.535156 3.546875 -30.859375 C 3.222656 -31.191406 3.0625 -31.722656 3.0625 -32.453125 L 3.0625 -39.421875 C 3.0625 -40.148438 3.222656 -40.675781 3.546875 -41 C 3.867188 -41.332031 4.394531 -41.5 5.125 -41.5 L 29.6875 -41.5 C 30.414062 -41.5 30.941406 -41.332031 31.265625 -41 C 31.597656 -40.675781 31.765625 -40.148438 31.765625 -39.421875 L 31.765625 -32.453125 C 31.765625 -31.722656 31.597656 -31.191406 31.265625 -30.859375 C 30.941406 -30.535156 30.414062 -30.375 29.6875 -30.375 L 24.09375 -30.375 L 24.09375 -11.015625 L 29.6875 -11.015625 C 30.414062 -11.015625 30.941406 -10.847656 31.265625 -10.515625 C 31.597656 -10.191406 31.765625 -9.664062 31.765625 -8.9375 L 31.765625 -2.078125 C 31.765625 -1.347656 31.597656 -0.816406 31.265625 -0.484375 C 30.941406 -0.160156 30.414062 0 29.6875 0 Z M 5.125 0 "/></g></g><g style="fill:#463f57;fill-opacity:1;"><g transform="translate(99.044997, 317.256727)"><path style="stroke:none" d="M 14.703125 0 L 6.046875 0 C 5.316406 0 4.789062 -0.160156 4.46875 -0.484375 C 4.144531 -0.816406 3.984375 -1.347656 3.984375 -2.078125 L 3.984375 -39.421875 C 3.984375 -40.148438 4.144531 -40.675781 4.46875 -41 C 4.789062 -41.332031 5.316406 -41.5 6.046875 -41.5 L 12.046875 -41.5 C 12.773438 -41.5 13.398438 -41.382812 13.921875 -41.15625 C 14.441406 -40.925781 14.953125 -40.519531 15.453125 -39.9375 L 26.625 -27.15625 L 26.625 -39.421875 C 26.625 -40.148438 26.785156 -40.675781 27.109375 -41 C 27.441406 -41.332031 27.972656 -41.5 28.703125 -41.5 L 37.34375 -41.5 C 38.082031 -41.5 38.613281 -41.332031 38.9375 -41 C 39.257812 -40.675781 39.421875 -40.148438 39.421875 -39.421875 L 39.421875 -2.078125 C 39.421875 -1.347656 39.257812 -0.816406 38.9375 -0.484375 C 38.613281 -0.160156 38.082031 0 37.34375 0 L 28.703125 0 C 27.972656 0 27.441406 -0.160156 27.109375 -0.484375 C 26.785156 -0.816406 26.625 -1.347656 26.625 -2.078125 L 26.625 -9.171875 L 16.765625 -21.09375 L 16.765625 -2.078125 C 16.765625 -1.347656 16.601562 -0.816406 16.28125 -0.484375 C 15.957031 -0.160156 15.429688 0 14.703125 0 Z M 14.703125 0 "/></g></g><g style="fill:#463f57;fill-opacity:1;"><g transform="translate(146.756728, 317.256727)"><path style="stroke:none" d="M 19.015625 -29.390625 L 16.3125 -20.640625 L 25.359375 -20.640625 L 22.65625 -29.390625 C 22.5 -29.742188 22.332031 -29.992188 22.15625 -30.140625 C 21.988281 -30.296875 21.789062 -30.375 21.5625 -30.375 L 20.109375 -30.375 C 19.878906 -30.375 19.675781 -30.296875 19.5 -30.140625 C 19.332031 -29.992188 19.171875 -29.742188 19.015625 -29.390625 Z M 15.734375 -2.078125 C 15.734375 -1.347656 15.566406 -0.816406 15.234375 -0.484375 C 14.910156 -0.160156 14.382812 0 13.65625 0 L 5.1875 0 C 4.457031 0 3.925781 -0.160156 3.59375 -0.484375 C 3.269531 -0.816406 3.109375 -1.347656 3.109375 -2.078125 L 3.109375 -17.296875 C 3.109375 -18.441406 3.289062 -19.765625 3.65625 -21.265625 C 4.019531 -22.765625 4.585938 -24.515625 5.359375 -26.515625 L 10.375 -39.59375 C 10.601562 -40.25 10.957031 -40.726562 11.4375 -41.03125 C 11.914062 -41.34375 12.539062 -41.5 13.3125 -41.5 L 28.8125 -41.5 C 29.550781 -41.5 30.160156 -41.34375 30.640625 -41.03125 C 31.117188 -40.726562 31.472656 -40.25 31.703125 -39.59375 L 36.71875 -26.515625 C 37.488281 -24.515625 38.054688 -22.765625 38.421875 -21.265625 C 38.785156 -19.765625 38.96875 -18.441406 38.96875 -17.296875 L 38.96875 -2.078125 C 38.96875 -1.347656 38.800781 -0.816406 38.46875 -0.484375 C 38.144531 -0.160156 37.617188 0 36.890625 0 L 28.1875 0 C 27.414062 0 26.847656 -0.160156 26.484375 -0.484375 C 26.117188 -0.816406 25.9375 -1.347656 25.9375 -2.078125 L 25.9375 -10.140625 L 15.734375 -10.140625 Z M 15.734375 -2.078125 "/></g></g><g style="fill:#463f57;fill-opacity:1;"><g transform="translate(193.143167, 317.256727)"><path style="stroke:none" d="M 23.578125 0 L 14.234375 0 C 13.503906 0 12.972656 -0.160156 12.640625 -0.484375 C 12.316406 -0.816406 12.15625 -1.347656 12.15625 -2.078125 L 12.15625 -30.375 L 3.6875 -30.375 C 2.957031 -30.375 2.425781 -30.535156 2.09375 -30.859375 C 1.769531 -31.191406 1.609375 -31.722656 1.609375 -32.453125 L 1.609375 -39.421875 C 1.609375 -40.148438 1.769531 -40.675781 2.09375 -41 C 2.425781 -41.332031 2.957031 -41.5 3.6875 -41.5 L 34.125 -41.5 C 34.851562 -41.5 35.378906 -41.332031 35.703125 -41 C 36.035156 -40.675781 36.203125 -40.148438 36.203125 -39.421875 L 36.203125 -32.453125 C 36.203125 -31.722656 36.035156 -31.191406 35.703125 -30.859375 C 35.378906 -30.535156 34.851562 -30.375 34.125 -30.375 L 25.65625 -30.375 L 25.65625 -2.078125 C 25.65625 -1.347656 25.488281 -0.816406 25.15625 -0.484375 C 24.832031 -0.160156 24.304688 0 23.578125 0 Z M 23.578125 0 "/></g></g><g style="fill:#463f57;fill-opacity:1;"><g transform="translate(235.265611, 317.256727)"><path style="stroke:none" d="M 32.796875 0 L 6.046875 0 C 5.316406 0 4.789062 -0.160156 4.46875 -0.484375 C 4.144531 -0.816406 3.984375 -1.347656 3.984375 -2.078125 L 3.984375 -39.421875 C 3.984375 -40.148438 4.144531 -40.675781 4.46875 -41 C 4.789062 -41.332031 5.316406 -41.5 6.046875 -41.5 L 32.796875 -41.5 C 33.523438 -41.5 34.050781 -41.332031 34.375 -41 C 34.707031 -40.675781 34.875 -40.148438 34.875 -39.421875 L 34.875 -32.6875 C 34.875 -31.957031 34.707031 -31.425781 34.375 -31.09375 C 34.050781 -30.769531 33.523438 -30.609375 32.796875 -30.609375 L 16.890625 -30.609375 L 16.890625 -26.171875 L 28.125 -26.171875 C 28.851562 -26.171875 29.378906 -26.003906 29.703125 -25.671875 C 30.035156 -25.347656 30.203125 -24.820312 30.203125 -24.09375 L 30.203125 -17.921875 C 30.203125 -17.191406 30.035156 -16.660156 29.703125 -16.328125 C 29.378906 -16.003906 28.851562 -15.84375 28.125 -15.84375 L 16.890625 -15.84375 L 16.890625 -10.890625 L 32.796875 -10.890625 C 33.523438 -10.890625 34.050781 -10.726562 34.375 -10.40625 C 34.707031 -10.082031 34.875 -9.550781 34.875 -8.8125 L 34.875 -2.078125 C 34.875 -1.347656 34.707031 -0.816406 34.375 -0.484375 C 34.050781 -0.160156 33.523438 0 32.796875 0 Z M 32.796875 0 "/></g></g><g style="fill:#463f57;fill-opacity:1;"><g transform="translate(277.272819, 317.256727)"><path style="stroke:none" d="M 31.59375 0 L 17.515625 0 C 12.710938 0 9.148438 -0.957031 6.828125 -2.875 C 4.503906 -4.800781 3.34375 -7.765625 3.34375 -11.765625 L 3.34375 -29.6875 C 3.34375 -33.675781 4.503906 -36.640625 6.828125 -38.578125 C 9.148438 -40.523438 12.710938 -41.5 17.515625 -41.5 L 31.59375 -41.5 C 32.320312 -41.5 32.847656 -41.332031 33.171875 -41 C 33.492188 -40.675781 33.65625 -40.148438 33.65625 -39.421875 L 33.65625 -32.453125 C 33.65625 -31.722656 33.492188 -31.191406 33.171875 -30.859375 C 32.847656 -30.535156 32.320312 -30.375 31.59375 -30.375 L 20 -30.375 C 18.8125 -30.375 17.925781 -30.132812 17.34375 -29.65625 C 16.769531 -29.175781 16.484375 -28.457031 16.484375 -27.5 L 16.484375 -13.78125 C 16.484375 -12.8125 16.769531 -12.109375 17.34375 -11.671875 C 17.925781 -11.234375 18.8125 -11.015625 20 -11.015625 L 31.59375 -11.015625 C 32.320312 -11.015625 32.847656 -10.847656 33.171875 -10.515625 C 33.492188 -10.191406 33.65625 -9.664062 33.65625 -8.9375 L 33.65625 -2.078125 C 33.65625 -1.347656 33.492188 -0.816406 33.171875 -0.484375 C 32.847656 -0.160156 32.320312 0 31.59375 0 Z M 31.59375 0 "/></g></g><g style="fill:#463f57;fill-opacity:1;"><g transform="translate(317.781835, 317.256727)"><path style="stroke:none" d="M 14.984375 0 L 6.046875 0 C 5.316406 0 4.789062 -0.160156 4.46875 -0.484375 C 4.144531 -0.816406 3.984375 -1.347656 3.984375 -2.078125 L 3.984375 -39.421875 C 3.984375 -40.148438 4.144531 -40.675781 4.46875 -41 C 4.789062 -41.332031 5.316406 -41.5 6.046875 -41.5 L 14.984375 -41.5 C 15.710938 -41.5 16.238281 -41.332031 16.5625 -41 C 16.894531 -40.675781 17.0625 -40.148438 17.0625 -39.421875 L 17.0625 -26.921875 L 26.6875 -26.921875 L 26.6875 -39.421875 C 26.6875 -40.148438 26.847656 -40.675781 27.171875 -41 C 27.503906 -41.332031 28.035156 -41.5 28.765625 -41.5 L 37.703125 -41.5 C 38.429688 -41.5 38.957031 -41.332031 39.28125 -41 C 39.601562 -40.675781 39.765625 -40.148438 39.765625 -39.421875 L 39.765625 -2.078125 C 39.765625 -1.347656 39.601562 -0.816406 39.28125 -0.484375 C 38.957031 -0.160156 38.429688 0 37.703125 0 L 28.765625 0 C 28.035156 0 27.503906 -0.160156 27.171875 -0.484375 C 26.847656 -0.816406 26.6875 -1.347656 26.6875 -2.078125 L 26.6875 -14.875 L 17.0625 -14.875 L 17.0625 -2.078125 C 17.0625 -1.347656 16.894531 -0.816406 16.5625 -0.484375 C 16.238281 -0.160156 15.710938 0 14.984375 0 Z M 14.984375 0 "/></g></g><path style=" stroke:none;fill-rule:nonzero;fill:#463f57;fill-opacity:1;" d="M 239.988281 105.902344 C 239.65625 105.296875 239.226562 104.699219 238.324219 104.242188 L 225.4375 96.800781 C 225.261719 96.699219 225.070312 96.621094 224.867188 96.570312 C 224.800781 96.554688 224.738281 96.554688 224.667969 96.542969 C 224.535156 96.519531 224.402344 96.496094 224.269531 96.496094 L 224.242188 96.496094 L 224.242188 96.503906 C 223.859375 96.507812 223.484375 96.613281 223.15625 96.800781 L 194.160156 113.542969 L 194.136719 113.492188 L 191.796875 114.847656 C 188.976562 116.472656 185.503906 116.472656 182.679688 114.847656 L 170.007812 107.53125 C 169.304688 107.121094 168.871094 106.371094 168.871094 105.554688 C 168.871094 104.742188 169.304688 103.988281 170.007812 103.582031 L 182.679688 96.269531 C 185.503906 94.640625 188.976562 94.640625 191.796875 96.269531 L 194.847656 98.03125 C 195.554688 98.433594 196.417969 98.433594 197.125 98.03125 L 208.929688 91.214844 C 209.632812 90.808594 210.066406 90.058594 210.066406 89.242188 C 210.066406 88.429688 209.632812 87.675781 208.929688 87.269531 L 191.796875 77.375 C 188.976562 75.75 185.503906 75.75 182.683594 77.375 L 140.710938 101.609375 C 137.675781 103.363281 137.675781 107.746094 140.710938 109.5 L 182.683594 133.730469 C 185.503906 135.359375 188.976562 135.359375 191.796875 133.730469 L 224.242188 115 L 224.242188 157.671875 L 213.816406 163.710938 L 191.796875 176.464844 C 191.097656 176.863281 190.355469 177.167969 189.578125 177.378906 C 187.253906 177.996094 184.773438 177.664062 182.683594 176.464844 L 152.511719 159.046875 C 151.101562 158.230469 150.234375 156.726562 150.234375 155.097656 L 150.234375 130.222656 C 150.234375 129.410156 149.796875 128.652344 149.09375 128.253906 L 137.292969 121.433594 C 136.589844 121.023438 135.71875 121.023438 135.015625 121.433594 C 134.308594 121.839844 133.875 122.59375 133.875 123.410156 L 133.875 164.542969 C 133.875 166.171875 134.746094 167.671875 136.15625 168.492188 L 182.683594 195.355469 C 184.046875 196.144531 185.597656 196.558594 187.175781 196.570312 L 187.207031 196.570312 C 187.429688 196.570312 187.652344 196.542969 187.875 196.53125 C 188.046875 196.519531 188.21875 196.519531 188.390625 196.5 C 188.625 196.46875 188.859375 196.410156 189.089844 196.367188 C 189.25 196.328125 189.40625 196.308594 189.558594 196.269531 C 189.8125 196.207031 190.054688 196.113281 190.296875 196.023438 C 190.4375 195.972656 190.570312 195.941406 190.699219 195.890625 C 191.074219 195.738281 191.441406 195.558594 191.792969 195.355469 L 231.933594 172.179688 L 238.296875 168.566406 C 239.722656 167.761719 240.605469 166.246094 240.605469 164.609375 L 240.605469 108.183594 C 240.605469 107.371094 240.382812 106.585938 239.988281 105.902344 "/><g clip-rule="nonzero" clip-path="url(#6725b31cb1)"><path style=" stroke:none;fill-rule:nonzero;fill:#463f57;fill-opacity:1;" d="M 191.683594 63.75 C 190.328125 62.96875 188.804688 62.550781 187.238281 62.539062 C 185.683594 62.550781 184.148438 62.96875 182.796875 63.75 L 126.730469 96.121094 C 123.917969 97.742188 122.1875 100.742188 122.1875 103.992188 L 122.1875 168.734375 C 122.183594 171.984375 123.917969 174.984375 126.730469 176.605469 L 182.796875 208.972656 C 184.167969 209.769531 185.71875 210.1875 187.304688 210.195312 C 188.886719 210.1875 190.441406 209.769531 191.816406 208.980469 L 247.636719 176.75 C 250.445312 175.128906 252.179688 172.128906 252.179688 168.882812 L 252.179688 150.171875 C 252.175781 149.359375 252.613281 148.609375 253.3125 148.203125 L 265.199219 141.34375 C 265.898438 140.9375 266.769531 140.9375 267.46875 141.34375 C 268.175781 141.75 268.605469 142.5 268.605469 143.3125 L 268.605469 178.15625 C 268.601562 179.644531 268.230469 181.105469 267.53125 182.414062 C 267.355469 183.273438 266.421875 184.285156 265.097656 185.320312 C 265.074219 185.34375 265.035156 185.371094 265.003906 185.394531 C 261.644531 188.007812 256.089844 190.703125 255.105469 191.277344 L 191.816406 227.816406 C 190.398438 228.628906 188.785156 229.050781 187.152344 229.03125 L 187.082031 229.03125 L 187.082031 229.023438 C 185.574219 228.984375 184.097656 228.566406 182.796875 227.816406 L 110.417969 186.027344 C 107.605469 184.40625 105.871094 181.402344 105.871094 178.15625 L 105.871094 94.574219 C 105.871094 93.117188 106.054688 91.628906 106.699219 90.371094 C 106.785156 90.046875 107.664062 88.441406 109.46875 87.121094 C 110.152344 86.660156 111.355469 86.042969 112.484375 85.390625 L 182.59375 44.914062 C 184.003906 44.101562 185.613281 43.683594 187.238281 43.703125 C 188.875 43.683594 190.476562 44.101562 191.886719 44.914062 L 256.582031 82.261719 C 256.726562 82.351562 256.839844 82.457031 256.96875 82.5625 L 257.789062 83.03125 C 259.988281 84.195312 263.433594 85.972656 265.300781 87.394531 L 265.453125 87.507812 C 265.480469 87.527344 265.503906 87.546875 265.53125 87.5625 C 265.59375 87.617188 265.640625 87.671875 265.703125 87.730469 C 266.390625 88.304688 266.972656 88.976562 267.425781 89.730469 C 267.4375 89.742188 267.445312 89.753906 267.457031 89.765625 L 267.449219 89.769531 C 268.207031 91.03125 268.609375 92.472656 268.609375 93.945312 L 268.609375 124.546875 C 268.609375 125.363281 268.175781 126.113281 267.46875 126.519531 L 255.582031 133.382812 C 254.882812 133.785156 254.011719 133.785156 253.3125 133.382812 C 252.609375 132.976562 252.175781 132.226562 252.175781 131.414062 L 252.175781 103.816406 C 252.175781 100.5625 250.441406 97.558594 247.625 95.9375 Z M 191.683594 63.75 "/></g></g></svg>